<svg width="383" height="96" viewBox="0 0 383 96" fill="none" xmlns="http://www.w3.org/2000/svg">
<g filter="url(#filter0_d_60_59)">
<rect x="4" width="341" height="56" rx="5" fill="white"/>
<rect x="4.5" y="0.5" width="340" height="55" rx="4.5" stroke="#ADADB4" stroke-opacity="0.2"/>
</g>
<path opacity="0.2" d="M46.2301 21.5385V33.275L42.4109 29.4558C42.2666 29.3116 42.071 29.2306 41.8671 29.2306C41.6632 29.2306 41.4676 29.3116 41.3234 29.4558L38.8561 31.9231L34.082 27.1481C34.0106 27.0766 33.9257 27.0198 33.8324 26.9811C33.739 26.9424 33.6389 26.9225 33.5378 26.9225C33.4367 26.9225 33.3366 26.9424 33.2432 26.9811C33.1498 27.0198 33.065 27.0766 32.9936 27.1481L27.7686 32.374V21.5385C27.7686 21.3344 27.8496 21.1388 27.9939 20.9945C28.1381 20.8503 28.3338 20.7692 28.5378 20.7692H45.4609C45.6649 20.7692 45.8605 20.8503 46.0048 20.9945C46.149 21.1388 46.2301 21.3344 46.2301 21.5385Z" fill="#232D42"/>
<path d="M45.4615 20H28.5385C28.1304 20 27.7391 20.1621 27.4506 20.4506C27.1621 20.7391 27 21.1304 27 21.5385V35.3846C27 35.7926 27.1621 36.184 27.4506 36.4725C27.7391 36.761 28.1304 36.9231 28.5385 36.9231H45.4615C45.8696 36.9231 46.2609 36.761 46.5494 36.4725C46.8379 36.184 47 35.7926 47 35.3846V21.5385C47 21.1304 46.8379 20.7391 46.5494 20.4506C46.2609 20.1621 45.8696 20 45.4615 20ZM45.4615 21.5385V31.4183L42.9548 28.9125C42.8119 28.7696 42.6423 28.6562 42.4557 28.5789C42.269 28.5016 42.0689 28.4618 41.8668 28.4618C41.6648 28.4618 41.4647 28.5016 41.278 28.5789C41.0913 28.6562 40.9217 28.7696 40.7788 28.9125L38.8558 30.8356L34.625 26.6048C34.3365 26.3165 33.9454 26.1546 33.5375 26.1546C33.1296 26.1546 32.7385 26.3165 32.45 26.6048L28.5385 30.5163V21.5385H45.4615ZM28.5385 32.6923L33.5385 27.6923L41.2308 35.3846H28.5385V32.6923ZM45.4615 35.3846H43.4067L39.9452 31.9231L41.8683 30L45.4615 33.5942V35.3846ZM38.5385 25.7692C38.5385 25.541 38.6061 25.3179 38.7329 25.1282C38.8597 24.9384 39.0399 24.7905 39.2508 24.7032C39.4616 24.6159 39.6936 24.593 39.9174 24.6376C40.1412 24.6821 40.3468 24.792 40.5082 24.9533C40.6696 25.1147 40.7795 25.3203 40.824 25.5441C40.8685 25.768 40.8457 26 40.7583 26.2108C40.671 26.4216 40.5231 26.6018 40.3334 26.7286C40.1436 26.8554 39.9205 26.9231 39.6923 26.9231C39.3863 26.9231 39.0928 26.8015 38.8764 26.5851C38.66 26.3687 38.5385 26.0752 38.5385 25.7692Z" fill="#232D42"/>
<path d="M75.3381 20.4545V35H73.321L65.9276 24.3324H65.7926V35H63.598V20.4545H65.6293L73.0298 31.1364H73.1648V20.4545H75.3381ZM81.5437 35.2415C80.8524 35.2415 80.2274 35.1136 79.6687 34.858C79.11 34.5975 78.6673 34.2211 78.3406 33.7287C78.0186 33.2363 77.8576 32.6326 77.8576 31.9176C77.8576 31.3021 77.976 30.7955 78.2127 30.3977C78.4495 30 78.7691 29.6851 79.1715 29.4531C79.574 29.2211 80.0238 29.0459 80.521 28.9276C81.0181 28.8092 81.5247 28.7192 82.0408 28.6577C82.6942 28.5819 83.2246 28.5204 83.6317 28.473C84.0389 28.4209 84.3349 28.3381 84.5195 28.2244C84.7042 28.1108 84.7965 27.9261 84.7965 27.6705V27.6207C84.7965 27.0005 84.6213 26.5199 84.271 26.179C83.9253 25.8381 83.4092 25.6676 82.7227 25.6676C82.0077 25.6676 81.4442 25.8262 81.0323 26.1435C80.6251 26.456 80.3434 26.804 80.1871 27.1875L78.1914 26.733C78.4281 26.0701 78.7738 25.535 79.2283 25.1278C79.6876 24.7159 80.2156 24.4176 80.8121 24.233C81.4087 24.0436 82.0361 23.9489 82.6942 23.9489C83.1299 23.9489 83.5915 24.0009 84.0792 24.1051C84.5716 24.2045 85.0309 24.3892 85.457 24.6591C85.8879 24.929 86.2406 25.3149 86.5153 25.8168C86.7899 26.3139 86.9272 26.9602 86.9272 27.7557V35H84.8533V33.5085H84.7681C84.6308 33.7831 84.4248 34.053 84.1502 34.3182C83.8756 34.5833 83.5228 34.8035 83.092 34.9787C82.6611 35.1539 82.145 35.2415 81.5437 35.2415ZM82.0053 33.5369C82.5924 33.5369 83.0943 33.4209 83.511 33.1889C83.9324 32.9569 84.252 32.6539 84.4698 32.2798C84.6924 31.901 84.8036 31.4962 84.8036 31.0653V29.6591C84.7279 29.7348 84.5811 29.8059 84.3633 29.8722C84.1502 29.9337 83.9064 29.9882 83.6317 30.0355C83.3571 30.0781 83.0896 30.1184 82.8292 30.1562C82.5688 30.1894 82.351 30.2178 82.1758 30.2415C81.7638 30.2936 81.3874 30.3812 81.0465 30.5043C80.7103 30.6274 80.4405 30.8049 80.2369 31.0369C80.038 31.2642 79.9386 31.5672 79.9386 31.946C79.9386 32.4716 80.1327 32.8693 80.521 33.1392C80.9092 33.4044 81.404 33.5369 82.0053 33.5369ZM98.6974 24.0909L94.7415 35H92.4688L88.5057 24.0909H90.7855L93.5483 32.4858H93.6619L96.4176 24.0909H98.6974ZM100.693 35V24.0909H102.817V35H100.693ZM101.766 22.4077C101.396 22.4077 101.079 22.2846 100.814 22.0384C100.554 21.7874 100.423 21.4891 100.423 21.1435C100.423 20.7931 100.554 20.4948 100.814 20.2486C101.079 19.9976 101.396 19.8722 101.766 19.8722C102.135 19.8722 102.45 19.9976 102.71 20.2486C102.975 20.4948 103.108 20.7931 103.108 21.1435C103.108 21.4891 102.975 21.7874 102.71 22.0384C102.45 22.2846 102.135 22.4077 101.766 22.4077ZM110.248 39.3182C109.381 39.3182 108.635 39.2045 108.01 38.9773C107.39 38.75 106.883 38.4493 106.49 38.0753C106.097 37.7012 105.804 37.2917 105.61 36.8466L107.435 36.0938C107.563 36.3021 107.733 36.5223 107.946 36.7543C108.164 36.991 108.458 37.1922 108.827 37.358C109.201 37.5237 109.682 37.6065 110.269 37.6065C111.074 37.6065 111.739 37.41 112.265 37.017C112.79 36.6288 113.053 36.0085 113.053 35.1562V33.0114H112.918C112.79 33.2434 112.605 33.5014 112.364 33.7855C112.127 34.0696 111.801 34.3158 111.384 34.5241C110.967 34.7325 110.425 34.8366 109.757 34.8366C108.896 34.8366 108.119 34.6354 107.428 34.233C106.741 33.8258 106.197 33.2268 105.794 32.4361C105.397 31.6406 105.198 30.6629 105.198 29.5028C105.198 28.3428 105.394 27.3485 105.787 26.5199C106.185 25.6913 106.73 25.0568 107.421 24.6165C108.112 24.1714 108.896 23.9489 109.772 23.9489C110.449 23.9489 110.996 24.0625 111.412 24.2898C111.829 24.5123 112.153 24.7727 112.385 25.071C112.622 25.3693 112.804 25.6321 112.932 25.8594H113.088V24.0909H115.169V35.2415C115.169 36.179 114.952 36.9484 114.516 37.5497C114.08 38.151 113.491 38.5961 112.748 38.8849C112.009 39.1738 111.176 39.3182 110.248 39.3182ZM110.226 33.0753C110.837 33.0753 111.353 32.9332 111.775 32.6491C112.201 32.3603 112.523 31.9484 112.74 31.4134C112.963 30.8736 113.074 30.2273 113.074 29.4744C113.074 28.7405 112.965 28.0942 112.748 27.5355C112.53 26.9768 112.21 26.5412 111.789 26.2287C111.367 25.9115 110.846 25.7528 110.226 25.7528C109.587 25.7528 109.054 25.9186 108.628 26.25C108.202 26.5767 107.88 27.0218 107.662 27.5852C107.449 28.1487 107.343 28.7784 107.343 29.4744C107.343 30.1894 107.452 30.8168 107.669 31.3565C107.887 31.8963 108.209 32.3177 108.635 32.6207C109.066 32.9238 109.596 33.0753 110.226 33.0753ZM121.192 35.2415C120.501 35.2415 119.876 35.1136 119.317 34.858C118.758 34.5975 118.316 34.2211 117.989 33.7287C117.667 33.2363 117.506 32.6326 117.506 31.9176C117.506 31.3021 117.624 30.7955 117.861 30.3977C118.098 30 118.417 29.6851 118.82 29.4531C119.222 29.2211 119.672 29.0459 120.169 28.9276C120.667 28.8092 121.173 28.7192 121.689 28.6577C122.343 28.5819 122.873 28.5204 123.28 28.473C123.687 28.4209 123.983 28.3381 124.168 28.2244C124.353 28.1108 124.445 27.9261 124.445 27.6705V27.6207C124.445 27.0005 124.27 26.5199 123.919 26.179C123.574 25.8381 123.058 25.6676 122.371 25.6676C121.656 25.6676 121.093 25.8262 120.681 26.1435C120.274 26.456 119.992 26.804 119.836 27.1875L117.84 26.733C118.077 26.0701 118.422 25.535 118.877 25.1278C119.336 24.7159 119.864 24.4176 120.461 24.233C121.057 24.0436 121.685 23.9489 122.343 23.9489C122.778 23.9489 123.24 24.0009 123.728 24.1051C124.22 24.2045 124.679 24.3892 125.105 24.6591C125.536 24.929 125.889 25.3149 126.164 25.8168C126.438 26.3139 126.576 26.9602 126.576 27.7557V35H124.502V33.5085H124.417C124.279 33.7831 124.073 34.053 123.799 34.3182C123.524 34.5833 123.171 34.8035 122.74 34.9787C122.31 35.1539 121.793 35.2415 121.192 35.2415ZM121.654 33.5369C122.241 33.5369 122.743 33.4209 123.159 33.1889C123.581 32.9569 123.9 32.6539 124.118 32.2798C124.341 31.901 124.452 31.4962 124.452 31.0653V29.6591C124.376 29.7348 124.23 29.8059 124.012 29.8722C123.799 29.9337 123.555 29.9882 123.28 30.0355C123.006 30.0781 122.738 30.1184 122.478 30.1562C122.217 30.1894 121.999 30.2178 121.824 30.2415C121.412 30.2936 121.036 30.3812 120.695 30.5043C120.359 30.6274 120.089 30.8049 119.885 31.0369C119.686 31.2642 119.587 31.5672 119.587 31.946C119.587 32.4716 119.781 32.8693 120.169 33.1392C120.558 33.4044 121.052 33.5369 121.654 33.5369ZM134.496 24.0909V25.7955H128.538V24.0909H134.496ZM130.136 21.4773H132.259V31.7969C132.259 32.2088 132.321 32.5189 132.444 32.7273C132.567 32.9309 132.726 33.0705 132.92 33.1463C133.119 33.2173 133.334 33.2528 133.566 33.2528C133.737 33.2528 133.886 33.241 134.013 33.2173C134.141 33.1937 134.241 33.1747 134.312 33.1605L134.695 34.9148C134.572 34.9621 134.397 35.0095 134.17 35.0568C133.942 35.1089 133.658 35.1373 133.317 35.142C132.759 35.1515 132.238 35.0521 131.755 34.8438C131.272 34.6354 130.881 34.3134 130.583 33.8778C130.285 33.4422 130.136 32.8954 130.136 32.2372V21.4773ZM136.846 35V24.0909H138.969V35H136.846ZM137.918 22.4077C137.549 22.4077 137.231 22.2846 136.966 22.0384C136.706 21.7874 136.576 21.4891 136.576 21.1435C136.576 20.7931 136.706 20.4948 136.966 20.2486C137.231 19.9976 137.549 19.8722 137.918 19.8722C138.287 19.8722 138.602 19.9976 138.863 20.2486C139.128 20.4948 139.26 20.7931 139.26 21.1435C139.26 21.4891 139.128 21.7874 138.863 22.0384C138.602 22.2846 138.287 22.4077 137.918 22.4077ZM146.421 35.2202C145.398 35.2202 144.506 34.9858 143.744 34.517C142.981 34.0483 142.389 33.3925 141.968 32.5497C141.547 31.7069 141.336 30.7221 141.336 29.5952C141.336 28.4635 141.547 27.474 141.968 26.6264C142.389 25.7789 142.981 25.1207 143.744 24.652C144.506 24.1832 145.398 23.9489 146.421 23.9489C147.444 23.9489 148.336 24.1832 149.099 24.652C149.861 25.1207 150.453 25.7789 150.874 26.6264C151.296 27.474 151.506 28.4635 151.506 29.5952C151.506 30.7221 151.296 31.7069 150.874 32.5497C150.453 33.3925 149.861 34.0483 149.099 34.517C148.336 34.9858 147.444 35.2202 146.421 35.2202ZM146.428 33.4375C147.091 33.4375 147.64 33.2623 148.076 32.9119C148.512 32.5616 148.834 32.0952 149.042 31.5128C149.255 30.9304 149.362 30.2888 149.362 29.5881C149.362 28.892 149.255 28.2528 149.042 27.6705C148.834 27.0833 148.512 26.6122 148.076 26.2571C147.64 25.902 147.091 25.7244 146.428 25.7244C145.761 25.7244 145.207 25.902 144.766 26.2571C144.331 26.6122 144.006 27.0833 143.793 27.6705C143.585 28.2528 143.481 28.892 143.481 29.5881C143.481 30.2888 143.585 30.9304 143.793 31.5128C144.006 32.0952 144.331 32.5616 144.766 32.9119C145.207 33.2623 145.761 33.4375 146.428 33.4375ZM156 28.5227V35H153.877V24.0909H155.915V25.8665H156.05C156.301 25.2888 156.694 24.8248 157.229 24.4744C157.769 24.1241 158.448 23.9489 159.267 23.9489C160.011 23.9489 160.662 24.1051 161.221 24.4176C161.779 24.7254 162.212 25.1847 162.52 25.7955C162.828 26.4062 162.982 27.1615 162.982 28.0611V35H160.858V28.3168C160.858 27.526 160.652 26.9081 160.24 26.4631C159.828 26.0133 159.263 25.7884 158.543 25.7884C158.051 25.7884 157.613 25.8949 157.229 26.108C156.85 26.321 156.55 26.6335 156.327 27.0455C156.109 27.4527 156 27.9451 156 28.5227Z" fill="black"/>
<rect x="309.5" y="64.5" width="73" height="31" rx="7.319" fill="#232D42"/>
<rect x="309.5" y="64.5" width="73" height="31" rx="7.319" stroke="#E8EDFC"/>
<path d="M335.653 83.5H333.299V76.2273H335.728C336.441 76.2273 337.053 76.3729 337.564 76.6641C338.075 76.9529 338.467 77.3684 338.739 77.9105C339.014 78.4503 339.151 79.0978 339.151 79.853C339.151 80.6106 339.013 81.2616 338.736 81.8061C338.461 82.3506 338.063 82.7696 337.543 83.0632C337.022 83.3544 336.392 83.5 335.653 83.5ZM334.396 82.5412H335.593C336.147 82.5412 336.607 82.437 336.974 82.2287C337.341 82.018 337.616 81.7138 337.798 81.3161C337.981 80.916 338.072 80.4283 338.072 79.853C338.072 79.2824 337.981 78.7983 337.798 78.4006C337.618 78.0028 337.35 77.701 336.992 77.495C336.635 77.2891 336.191 77.1861 335.661 77.1861H334.396V82.5412ZM342.781 83.6101C342.244 83.6101 341.781 83.4953 341.393 83.2656C341.007 83.0336 340.709 82.7081 340.498 82.2891C340.29 81.8677 340.186 81.3741 340.186 80.8082C340.186 80.2495 340.29 79.7571 340.498 79.331C340.709 78.9048 341.002 78.5722 341.379 78.3331C341.758 78.094 342.2 77.9744 342.707 77.9744C343.015 77.9744 343.313 78.0253 343.602 78.1271C343.891 78.2289 344.15 78.3887 344.379 78.6065C344.609 78.8243 344.79 79.1072 344.923 79.4553C345.055 79.8009 345.122 80.2211 345.122 80.7159V81.0923H340.786V80.2969H344.081C344.081 80.0175 344.024 79.7701 343.911 79.5547C343.797 79.3369 343.637 79.1652 343.431 79.0398C343.228 78.9143 342.989 78.8516 342.714 78.8516C342.416 78.8516 342.155 78.925 341.933 79.0717C341.713 79.2161 341.542 79.4055 341.421 79.6399C341.303 79.8719 341.244 80.1241 341.244 80.3963V81.0178C341.244 81.3823 341.308 81.6925 341.436 81.9482C341.566 82.2038 341.747 82.3991 341.979 82.5341C342.211 82.6667 342.482 82.733 342.792 82.733C342.993 82.733 343.177 82.7045 343.343 82.6477C343.508 82.5885 343.651 82.5009 343.772 82.3849C343.893 82.2689 343.985 82.1257 344.049 81.9553L345.054 82.1364C344.974 82.4323 344.829 82.6915 344.621 82.9141C344.415 83.1342 344.156 83.3059 343.843 83.429C343.533 83.5497 343.179 83.6101 342.781 83.6101ZM347.362 76.2273V83.5H346.3V76.2273H347.362ZM350.377 83.6207C350.032 83.6207 349.719 83.5568 349.44 83.429C349.16 83.2988 348.939 83.1106 348.776 82.8643C348.615 82.6181 348.534 82.3163 348.534 81.9588C348.534 81.651 348.593 81.3977 348.712 81.1989C348.83 81 348.99 80.8426 349.191 80.7266C349.392 80.6106 349.617 80.523 349.866 80.4638C350.115 80.4046 350.368 80.3596 350.626 80.3288C350.953 80.291 351.218 80.2602 351.421 80.2365C351.625 80.2105 351.773 80.169 351.865 80.1122C351.958 80.0554 352.004 79.9631 352.004 79.8352V79.8104C352.004 79.5002 351.916 79.2599 351.741 79.0895C351.568 78.919 351.31 78.8338 350.967 78.8338C350.609 78.8338 350.328 78.9131 350.122 79.0717C349.918 79.228 349.777 79.402 349.699 79.5938L348.701 79.3665C348.82 79.035 348.992 78.7675 349.22 78.5639C349.449 78.358 349.713 78.2088 350.012 78.1165C350.31 78.0218 350.624 77.9744 350.953 77.9744C351.17 77.9744 351.401 78.0005 351.645 78.0526C351.891 78.1023 352.121 78.1946 352.334 78.3295C352.549 78.4645 352.726 78.6574 352.863 78.9084C353 79.157 353.069 79.4801 353.069 79.8778V83.5H352.032V82.7543H351.99C351.921 82.8916 351.818 83.0265 351.681 83.1591C351.543 83.2917 351.367 83.4018 351.151 83.4893C350.936 83.5769 350.678 83.6207 350.377 83.6207ZM350.608 82.7685C350.902 82.7685 351.153 82.7105 351.361 82.5945C351.572 82.4785 351.731 82.3269 351.84 82.1399C351.952 81.9505 352.007 81.7481 352.007 81.5327V80.8295C351.969 80.8674 351.896 80.9029 351.787 80.9361C351.681 80.9669 351.559 80.9941 351.421 81.0178C351.284 81.0391 351.15 81.0592 351.02 81.0781C350.89 81.0947 350.781 81.1089 350.693 81.1207C350.487 81.1468 350.299 81.1906 350.129 81.2521C349.961 81.3137 349.826 81.4025 349.724 81.5185C349.624 81.6321 349.575 81.7836 349.575 81.973C349.575 82.2358 349.672 82.4347 349.866 82.5696C350.06 82.7022 350.307 82.7685 350.608 82.7685ZM355.545 76.2273V83.5H354.483V76.2273H355.545ZM356.974 83.5V78.0455H358.035V83.5H356.974ZM357.51 77.2038C357.325 77.2038 357.166 77.1423 357.034 77.0192C356.904 76.8937 356.839 76.7446 356.839 76.5717C356.839 76.3965 356.904 76.2474 357.034 76.1243C357.166 75.9988 357.325 75.9361 357.51 75.9361C357.694 75.9361 357.852 75.9988 357.982 76.1243C358.115 76.2474 358.181 76.3965 358.181 76.5717C358.181 76.7446 358.115 76.8937 357.982 77.0192C357.852 77.1423 357.694 77.2038 357.51 77.2038Z" fill="white"/>
<path fill-rule="evenodd" clip-rule="evenodd" d="M300.193 71.299C300.125 72.1616 299.051 72.5162 298.482 71.8643L288.925 60.9143C288.352 60.2583 288.858 59.2375 289.727 59.2965L304.676 60.3113C305.545 60.3703 305.908 61.4502 305.252 62.0228L300.818 65.8932C300.738 65.9631 300.675 66.0506 300.635 66.1489C300.608 66.2145 300.591 66.2839 300.586 66.3546L300.193 71.299Z" fill="#FFEDE0"/>
<path fill-rule="evenodd" clip-rule="evenodd" d="M292.547 60.694C291.675 60.6295 291.164 61.6533 291.738 62.3115L297.503 68.9161C298.07 69.5661 299.14 69.2158 299.213 68.3561L299.442 65.6588C299.45 65.5503 299.5 65.4492 299.582 65.3777L302.215 63.0789C302.869 62.5082 302.51 61.4319 301.645 61.3678L292.547 60.694Z" fill="#232D42"/>
<defs>
<filter id="filter0_d_60_59" x="0" y="0" width="349" height="64" filterUnits="userSpaceOnUse" color-interpolation-filters="sRGB">
<feFlood flood-opacity="0" result="BackgroundImageFix"/>
<feColorMatrix in="SourceAlpha" type="matrix" values="0 0 0 0 0 0 0 0 0 0 0 0 0 0 0 0 0 0 127 0" result="hardAlpha"/>
<feOffset dy="4"/>
<feGaussianBlur stdDeviation="2"/>
<feComposite in2="hardAlpha" operator="out"/>
<feColorMatrix type="matrix" values="0 0 0 0 0.380392 0 0 0 0 0.662745 0 0 0 0 0.470588 0 0 0 0.1 0"/>
<feBlend mode="normal" in2="BackgroundImageFix" result="effect1_dropShadow_60_59"/>
<feBlend mode="normal" in="SourceGraphic" in2="effect1_dropShadow_60_59" result="shape"/>
</filter>
</defs>
</svg>
