<svg width="321" height="163" viewBox="0 0 321 163" fill="none" xmlns="http://www.w3.org/2000/svg">
<path d="M5.61719 77.7072L23.3254 56.5276H43.9972L65.4959 17.9406L86.1677 9.47032L107.666 3.82345L129.165 32.999L149.837 22.6464L171.336 1.94116L192.008 29.2344L213.506 1.94116L235.005 42.4104L255.677 43.3516L277.175 34.8812L297.847 61.2333L319.346 71.5859" stroke="#61A978" stroke-width="2"/>
<path d="M0.5 96.5001L23 83.3502L44 80.0001L65.4964 63.5862L86.1682 83.3502L107.667 68.2919L129.166 107.82L149.837 93.7028L171.336 58.8805L192.008 60.7627L213.507 70.1742H235.005L255.677 56.057L276.5 83.3502L299.5 90.5001L317.5 107.82" stroke="#FD4C5C" stroke-width="2"/>
<g filter="url(#filter0_d_36_2000)">
<path d="M189.609 10.8035C189.609 8.59433 191.4 6.80347 193.609 6.80347L262.609 6.80347C264.819 6.80347 266.609 8.59433 266.609 10.8035V22.3699C266.609 24.579 264.819 26.3699 262.609 26.3699H239.109L228.109 31.2615L217.109 26.3699H193.609C191.4 26.3699 189.609 24.579 189.609 22.3699V10.8035Z" fill="#F7F4FD"/>
<path d="M239.109 25.8699H239.003L238.906 25.913L228.109 30.7143L217.313 25.913L217.216 25.8699H217.109H193.609C191.676 25.8699 190.109 24.3029 190.109 22.3699V10.8035C190.109 8.87047 191.676 7.30347 193.609 7.30347L262.609 7.30347C264.542 7.30347 266.109 8.87047 266.109 10.8035V22.3699C266.109 24.3029 264.542 25.8699 262.609 25.8699H239.109Z" stroke="#E8E0FF"/>
</g>
<path d="M196.461 19.1925C195.621 19.1925 194.797 18.8965 194.381 18.4645L194.613 18.0085C195.013 18.4005 195.725 18.6885 196.461 18.6885C197.509 18.6885 197.965 18.2485 197.965 17.6965C197.965 16.1605 194.517 17.1045 194.517 15.0325C194.517 14.2085 195.157 13.4965 196.581 13.4965C197.213 13.4965 197.869 13.6805 198.317 13.9925L198.117 14.4645C197.637 14.1525 197.077 14.0005 196.581 14.0005C195.557 14.0005 195.101 14.4565 195.101 15.0165C195.101 16.5525 198.549 15.6245 198.549 17.6645C198.549 18.4885 197.893 19.1925 196.461 19.1925ZM203.343 14.9365H203.911V19.1445H203.367V18.3765C203.071 18.8885 202.527 19.1845 201.855 19.1845C200.783 19.1845 200.079 18.5845 200.079 17.3765V14.9365H200.647V17.3205C200.647 18.2165 201.111 18.6725 201.911 18.6725C202.791 18.6725 203.343 18.1045 203.343 17.1445V14.9365ZM208.069 14.9045C209.269 14.9045 210.165 15.7685 210.165 17.0405C210.165 18.3125 209.269 19.1845 208.069 19.1845C207.373 19.1845 206.789 18.8805 206.445 18.3125V19.1445H205.901V13.2085H206.469V15.7365C206.821 15.1925 207.397 14.9045 208.069 14.9045ZM208.029 18.6805C208.917 18.6805 209.597 18.0245 209.597 17.0405C209.597 16.0565 208.917 15.4005 208.029 15.4005C207.133 15.4005 206.461 16.0565 206.461 17.0405C206.461 18.0245 207.133 18.6805 208.029 18.6805ZM212.851 19.1845C212.155 19.1845 211.483 18.9605 211.139 18.6645L211.395 18.2165C211.731 18.4805 212.299 18.6885 212.891 18.6885C213.691 18.6885 214.019 18.4165 214.019 18.0005C214.019 16.9045 211.291 17.7685 211.291 16.1045C211.291 15.4165 211.883 14.9045 212.955 14.9045C213.499 14.9045 214.091 15.0565 214.443 15.2965L214.195 15.7525C213.827 15.4965 213.387 15.3925 212.955 15.3925C212.195 15.3925 211.859 15.6885 211.859 16.0885C211.859 17.2245 214.587 16.3685 214.587 17.9845C214.587 18.7125 213.947 19.1845 212.851 19.1845ZM217.781 19.1845C216.525 19.1845 215.613 18.2965 215.613 17.0405C215.613 15.7845 216.525 14.9045 217.781 14.9045C218.493 14.9045 219.093 15.1845 219.429 15.7365L219.005 16.0245C218.717 15.6005 218.269 15.4005 217.781 15.4005C216.861 15.4005 216.189 16.0565 216.189 17.0405C216.189 18.0325 216.861 18.6805 217.781 18.6805C218.269 18.6805 218.717 18.4885 219.005 18.0645L219.429 18.3525C219.093 18.8965 218.493 19.1845 217.781 19.1845ZM221.489 15.7605C221.753 15.2005 222.289 14.9045 223.065 14.9045V15.4565C223.017 15.4565 222.969 15.4485 222.929 15.4485C222.049 15.4485 221.513 16.0085 221.513 17.0005V19.1445H220.945V14.9365H221.489V15.7605ZM224.782 14.0165C224.55 14.0165 224.366 13.8325 224.366 13.6085C224.366 13.3925 224.55 13.2085 224.782 13.2085C225.014 13.2085 225.198 13.3845 225.198 13.6005C225.198 13.8325 225.022 14.0165 224.782 14.0165ZM224.494 19.1445V14.9365H225.062V19.1445H224.494ZM229.21 14.9045C230.41 14.9045 231.306 15.7685 231.306 17.0405C231.306 18.3125 230.41 19.1845 229.21 19.1845C228.514 19.1845 227.93 18.8805 227.586 18.3125V19.1445H227.042V13.2085H227.61V15.7365C227.962 15.1925 228.538 14.9045 229.21 14.9045ZM229.17 18.6805C230.058 18.6805 230.738 18.0245 230.738 17.0405C230.738 16.0565 230.058 15.4005 229.17 15.4005C228.274 15.4005 227.602 16.0565 227.602 17.0405C227.602 18.0245 228.274 18.6805 229.17 18.6805ZM236.536 17.0405C236.536 17.0885 236.528 17.1525 236.528 17.2165H233.008C233.072 18.0965 233.744 18.6805 234.664 18.6805C235.176 18.6805 235.632 18.4965 235.952 18.1285L236.272 18.4965C235.896 18.9445 235.312 19.1845 234.648 19.1845C233.336 19.1845 232.44 18.2885 232.44 17.0405C232.44 15.7925 233.312 14.9045 234.496 14.9045C235.68 14.9045 236.536 15.7765 236.536 17.0405ZM234.496 15.3925C233.68 15.3925 233.08 15.9685 233.008 16.7925H235.992C235.92 15.9685 235.32 15.3925 234.496 15.3925ZM239.22 19.1845C238.524 19.1845 237.852 18.9605 237.508 18.6645L237.764 18.2165C238.1 18.4805 238.668 18.6885 239.26 18.6885C240.06 18.6885 240.388 18.4165 240.388 18.0005C240.388 16.9045 237.66 17.7685 237.66 16.1045C237.66 15.4165 238.252 14.9045 239.324 14.9045C239.868 14.9045 240.46 15.0565 240.812 15.2965L240.564 15.7525C240.196 15.4965 239.756 15.3925 239.324 15.3925C238.564 15.3925 238.228 15.6885 238.228 16.0885C238.228 17.2245 240.956 16.3685 240.956 17.9845C240.956 18.7125 240.316 19.1845 239.22 19.1845Z" fill="#232D42"/>
<path d="M252.842 17.1604V17.6724H251.722V19.1444H251.146V17.6724H247.986V17.2564L250.954 13.5444H251.594L248.73 17.1604H251.162V15.8644H251.722V17.1604H252.842ZM255.212 15.8404C256.9 15.8404 257.54 16.5044 257.54 17.4964C257.54 18.4484 256.876 19.1924 255.508 19.1924C254.7 19.1924 253.932 18.9124 253.5 18.4724L253.78 18.0164C254.14 18.3924 254.78 18.6644 255.5 18.6644C256.452 18.6644 256.956 18.2004 256.956 17.5204C256.956 16.8004 256.508 16.3524 255.084 16.3524H253.892L254.18 13.5444H257.244V14.0564H254.684L254.492 15.8404H255.212ZM260.903 19.1924C259.607 19.1924 258.671 18.1284 258.671 16.3444C258.671 14.5604 259.607 13.4964 260.903 13.4964C262.199 13.4964 263.143 14.5604 263.143 16.3444C263.143 18.1284 262.199 19.1924 260.903 19.1924ZM260.903 18.6644C261.879 18.6644 262.551 17.8404 262.551 16.3444C262.551 14.8484 261.879 14.0244 260.903 14.0244C259.927 14.0244 259.255 14.8484 259.255 16.3444C259.255 17.8404 259.927 18.6644 260.903 18.6644Z" fill="#232D42"/>
<path opacity="0.7" d="M73.5 141H72.408L68.016 134.34V141H66.924V132.624H68.016L72.408 139.272V132.624H73.5V141ZM81.7615 137.46C81.7615 137.668 81.7495 137.888 81.7255 138.12H76.4695C76.5095 138.768 76.7295 139.276 77.1295 139.644C77.5375 140.004 78.0295 140.184 78.6055 140.184C79.0775 140.184 79.4695 140.076 79.7815 139.86C80.1015 139.636 80.3255 139.34 80.4535 138.972H81.6295C81.4535 139.604 81.1015 140.12 80.5735 140.52C80.0455 140.912 79.3895 141.108 78.6055 141.108C77.9815 141.108 77.4215 140.968 76.9255 140.688C76.4375 140.408 76.0535 140.012 75.7735 139.5C75.4935 138.98 75.3535 138.38 75.3535 137.7C75.3535 137.02 75.4895 136.424 75.7615 135.912C76.0335 135.4 76.4135 135.008 76.9015 134.736C77.3975 134.456 77.9655 134.316 78.6055 134.316C79.2295 134.316 79.7815 134.452 80.2615 134.724C80.7415 134.996 81.1095 135.372 81.3655 135.852C81.6295 136.324 81.7615 136.86 81.7615 137.46ZM80.6335 137.232C80.6335 136.816 80.5415 136.46 80.3575 136.164C80.1735 135.86 79.9215 135.632 79.6015 135.48C79.2895 135.32 78.9415 135.24 78.5575 135.24C78.0055 135.24 77.5335 135.416 77.1415 135.768C76.7575 136.12 76.5375 136.608 76.4815 137.232H80.6335ZM92.3629 134.424L90.3109 141H89.1829L87.5989 135.78L86.0149 141H84.8869L82.8229 134.424H83.9389L85.4509 139.944L87.0829 134.424H88.1989L89.7949 139.956L91.2829 134.424H92.3629Z" fill="#232D42"/>
<circle cx="52.3828" cy="136.82" r="4" fill="#61A978"/>
<path d="M66.504 152.6V150.794H69.878V161H67.862V152.6H66.504ZM72.1703 159.012V157.472L76.7483 150.92H79.0303V157.304H80.2623V159.012H79.0303V161H77.0703V159.012H72.1703ZM77.1963 153.02L74.3263 157.304H77.1963V153.02ZM84.3161 158.942L82.6781 162.876H81.4181L82.3281 158.942H84.3161ZM92.8048 152.488H88.2688V154.882C88.4648 154.639 88.7448 154.443 89.1088 154.294C89.4728 154.135 89.8601 154.056 90.2708 154.056C91.0175 154.056 91.6288 154.219 92.1048 154.546C92.5808 154.873 92.9261 155.293 93.1408 155.806C93.3555 156.31 93.4628 156.851 93.4628 157.43C93.4628 158.503 93.1548 159.367 92.5388 160.02C91.9321 160.673 91.0641 161 89.9348 161C88.8708 161 88.0215 160.734 87.3868 160.202C86.7521 159.67 86.3928 158.975 86.3088 158.116H88.2128C88.2968 158.489 88.4835 158.788 88.7728 159.012C89.0715 159.236 89.4495 159.348 89.9068 159.348C90.4575 159.348 90.8728 159.175 91.1528 158.83C91.4328 158.485 91.5728 158.027 91.5728 157.458C91.5728 156.879 91.4281 156.441 91.1388 156.142C90.8588 155.834 90.4435 155.68 89.8928 155.68C89.5008 155.68 89.1741 155.778 88.9128 155.974C88.6515 156.17 88.4648 156.431 88.3528 156.758H86.4768V150.766H92.8048V152.488ZM97.6626 158.13C97.7372 158.541 97.9052 158.858 98.1666 159.082C98.4372 159.297 98.7966 159.404 99.2446 159.404C99.8232 159.404 100.243 159.166 100.505 158.69C100.766 158.205 100.897 157.393 100.897 156.254C100.682 156.553 100.379 156.786 99.9866 156.954C99.6039 157.122 99.1886 157.206 98.7406 157.206C98.1432 157.206 97.6019 157.085 97.1166 156.842C96.6406 156.59 96.2626 156.221 95.9826 155.736C95.7026 155.241 95.5626 154.644 95.5626 153.944C95.5626 152.908 95.8706 152.087 96.4866 151.48C97.1026 150.864 97.9426 150.556 99.0066 150.556C100.332 150.556 101.265 150.981 101.807 151.83C102.357 152.679 102.633 153.958 102.633 155.666C102.633 156.879 102.525 157.873 102.311 158.648C102.105 159.423 101.746 160.011 101.233 160.412C100.729 160.813 100.038 161.014 99.1606 161.014C98.4699 161.014 97.8819 160.883 97.3966 160.622C96.9112 160.351 96.5379 160.001 96.2766 159.572C96.0246 159.133 95.8799 158.653 95.8426 158.13H97.6626ZM99.1466 155.61C99.6319 155.61 100.015 155.461 100.295 155.162C100.575 154.863 100.715 154.462 100.715 153.958C100.715 153.407 100.565 152.983 100.267 152.684C99.9772 152.376 99.5806 152.222 99.0766 152.222C98.5726 152.222 98.1712 152.381 97.8726 152.698C97.5832 153.006 97.4386 153.417 97.4386 153.93C97.4386 154.425 97.5786 154.831 97.8586 155.148C98.1479 155.456 98.5772 155.61 99.1466 155.61ZM104.598 155.764C104.598 154.149 104.888 152.885 105.466 151.97C106.054 151.055 107.025 150.598 108.378 150.598C109.732 150.598 110.698 151.055 111.276 151.97C111.864 152.885 112.158 154.149 112.158 155.764C112.158 157.388 111.864 158.662 111.276 159.586C110.698 160.51 109.732 160.972 108.378 160.972C107.025 160.972 106.054 160.51 105.466 159.586C104.888 158.662 104.598 157.388 104.598 155.764ZM110.226 155.764C110.226 155.073 110.18 154.495 110.086 154.028C110.002 153.552 109.825 153.165 109.554 152.866C109.293 152.567 108.901 152.418 108.378 152.418C107.856 152.418 107.459 152.567 107.188 152.866C106.927 153.165 106.75 153.552 106.656 154.028C106.572 154.495 106.53 155.073 106.53 155.764C106.53 156.473 106.572 157.071 106.656 157.556C106.74 158.032 106.918 158.419 107.188 158.718C107.459 159.007 107.856 159.152 108.378 159.152C108.901 159.152 109.298 159.007 109.568 158.718C109.839 158.419 110.016 158.032 110.1 157.556C110.184 157.071 110.226 156.473 110.226 155.764Z" fill="#232D42"/>
<path opacity="0.7" d="M191.984 133.863V139.155C191.984 139.899 192.164 140.451 192.524 140.811C192.892 141.171 193.4 141.351 194.048 141.351C194.688 141.351 195.188 141.171 195.548 140.811C195.916 140.451 196.1 139.899 196.1 139.155V133.863H197.192V139.143C197.192 139.839 197.052 140.427 196.772 140.907C196.492 141.379 196.112 141.731 195.632 141.963C195.16 142.195 194.628 142.311 194.036 142.311C193.444 142.311 192.908 142.195 192.428 141.963C191.956 141.731 191.58 141.379 191.3 140.907C191.028 140.427 190.892 139.839 190.892 139.143V133.863H191.984ZM202.618 135.531C203.418 135.531 204.066 135.775 204.562 136.263C205.058 136.743 205.306 137.439 205.306 138.351V142.227H204.226V138.507C204.226 137.851 204.062 137.351 203.734 137.007C203.406 136.655 202.958 136.479 202.39 136.479C201.814 136.479 201.354 136.659 201.01 137.019C200.674 137.379 200.506 137.903 200.506 138.591V142.227H199.414V135.651H200.506V136.587C200.722 136.251 201.014 135.991 201.382 135.807C201.758 135.623 202.17 135.531 202.618 135.531ZM209.818 142.335C209.314 142.335 208.862 142.251 208.462 142.083C208.062 141.907 207.746 141.667 207.514 141.363C207.282 141.051 207.154 140.695 207.13 140.295H208.258C208.29 140.623 208.442 140.891 208.714 141.099C208.994 141.307 209.358 141.411 209.806 141.411C210.222 141.411 210.55 141.319 210.79 141.135C211.03 140.951 211.15 140.719 211.15 140.439C211.15 140.151 211.022 139.939 210.766 139.803C210.51 139.659 210.114 139.519 209.578 139.383C209.09 139.255 208.69 139.127 208.378 138.999C208.074 138.863 207.81 138.667 207.586 138.411C207.37 138.147 207.262 137.803 207.262 137.379C207.262 137.043 207.362 136.735 207.562 136.455C207.762 136.175 208.046 135.955 208.414 135.795C208.782 135.627 209.202 135.543 209.674 135.543C210.402 135.543 210.99 135.727 211.438 136.095C211.886 136.463 212.126 136.967 212.158 137.607H211.066C211.042 137.263 210.902 136.987 210.646 136.779C210.398 136.571 210.062 136.467 209.638 136.467C209.246 136.467 208.934 136.551 208.702 136.719C208.47 136.887 208.354 137.107 208.354 137.379C208.354 137.595 208.422 137.775 208.558 137.919C208.702 138.055 208.878 138.167 209.086 138.255C209.302 138.335 209.598 138.427 209.974 138.531C210.446 138.659 210.83 138.787 211.126 138.915C211.422 139.035 211.674 139.219 211.882 139.467C212.098 139.715 212.21 140.039 212.218 140.439C212.218 140.799 212.118 141.123 211.918 141.411C211.718 141.699 211.434 141.927 211.066 142.095C210.706 142.255 210.29 142.335 209.818 142.335ZM219.991 135.651V142.227H218.899V141.255C218.691 141.591 218.399 141.855 218.023 142.047C217.655 142.231 217.247 142.323 216.799 142.323C216.287 142.323 215.827 142.219 215.419 142.011C215.011 141.795 214.687 141.475 214.447 141.051C214.215 140.627 214.099 140.111 214.099 139.503V135.651H215.179V139.359C215.179 140.007 215.343 140.507 215.671 140.859C215.999 141.203 216.447 141.375 217.015 141.375C217.599 141.375 218.059 141.195 218.395 140.835C218.731 140.475 218.899 139.951 218.899 139.263V135.651H219.991ZM223.327 136.875C223.551 136.483 223.879 136.163 224.311 135.915C224.743 135.667 225.235 135.543 225.787 135.543C226.379 135.543 226.911 135.683 227.383 135.963C227.855 136.243 228.227 136.639 228.499 137.151C228.771 137.655 228.907 138.243 228.907 138.915C228.907 139.579 228.771 140.171 228.499 140.691C228.227 141.211 227.851 141.615 227.371 141.903C226.899 142.191 226.371 142.335 225.787 142.335C225.219 142.335 224.719 142.211 224.287 141.963C223.863 141.715 223.543 141.399 223.327 141.015V142.227H222.235V133.347H223.327V136.875ZM227.791 138.915C227.791 138.419 227.691 137.987 227.491 137.619C227.291 137.251 227.019 136.971 226.675 136.779C226.339 136.587 225.967 136.491 225.559 136.491C225.159 136.491 224.787 136.591 224.443 136.791C224.107 136.983 223.835 137.267 223.627 137.643C223.427 138.011 223.327 138.439 223.327 138.927C223.327 139.423 223.427 139.859 223.627 140.235C223.835 140.603 224.107 140.887 224.443 141.087C224.787 141.279 225.159 141.375 225.559 141.375C225.967 141.375 226.339 141.279 226.675 141.087C227.019 140.887 227.291 140.603 227.491 140.235C227.691 139.859 227.791 139.419 227.791 138.915ZM233.072 142.335C232.568 142.335 232.116 142.251 231.716 142.083C231.316 141.907 231 141.667 230.768 141.363C230.536 141.051 230.408 140.695 230.384 140.295H231.512C231.544 140.623 231.696 140.891 231.968 141.099C232.248 141.307 232.612 141.411 233.06 141.411C233.476 141.411 233.804 141.319 234.044 141.135C234.284 140.951 234.404 140.719 234.404 140.439C234.404 140.151 234.276 139.939 234.02 139.803C233.764 139.659 233.368 139.519 232.832 139.383C232.344 139.255 231.944 139.127 231.632 138.999C231.328 138.863 231.064 138.667 230.84 138.411C230.624 138.147 230.516 137.803 230.516 137.379C230.516 137.043 230.616 136.735 230.816 136.455C231.016 136.175 231.3 135.955 231.668 135.795C232.036 135.627 232.456 135.543 232.928 135.543C233.656 135.543 234.244 135.727 234.692 136.095C235.14 136.463 235.38 136.967 235.412 137.607H234.32C234.296 137.263 234.156 136.987 233.9 136.779C233.652 136.571 233.316 136.467 232.892 136.467C232.5 136.467 232.188 136.551 231.956 136.719C231.724 136.887 231.608 137.107 231.608 137.379C231.608 137.595 231.676 137.775 231.812 137.919C231.956 138.055 232.132 138.167 232.34 138.255C232.556 138.335 232.852 138.427 233.228 138.531C233.7 138.659 234.084 138.787 234.38 138.915C234.676 139.035 234.928 139.219 235.136 139.467C235.352 139.715 235.464 140.039 235.472 140.439C235.472 140.799 235.372 141.123 235.172 141.411C234.972 141.699 234.688 141.927 234.32 142.095C233.96 142.255 233.544 142.335 233.072 142.335ZM237.006 138.927C237.006 138.247 237.142 137.655 237.414 137.151C237.686 136.639 238.062 136.243 238.542 135.963C239.03 135.683 239.586 135.543 240.21 135.543C241.018 135.543 241.682 135.739 242.202 136.131C242.73 136.523 243.078 137.067 243.246 137.763H242.07C241.958 137.363 241.738 137.047 241.41 136.815C241.09 136.583 240.69 136.467 240.21 136.467C239.586 136.467 239.082 136.683 238.698 137.115C238.314 137.539 238.122 138.143 238.122 138.927C238.122 139.719 238.314 140.331 238.698 140.763C239.082 141.195 239.586 141.411 240.21 141.411C240.69 141.411 241.09 141.299 241.41 141.075C241.73 140.851 241.95 140.531 242.07 140.115H243.246C243.07 140.787 242.718 141.327 242.19 141.735C241.662 142.135 241.002 142.335 240.21 142.335C239.586 142.335 239.03 142.195 238.542 141.915C238.062 141.635 237.686 141.239 237.414 140.727C237.142 140.215 237.006 139.615 237.006 138.927ZM246.195 136.719C246.387 136.343 246.659 136.051 247.011 135.843C247.371 135.635 247.807 135.531 248.319 135.531V136.659H248.031C246.807 136.659 246.195 137.323 246.195 138.651V142.227H245.103V135.651H246.195V136.719ZM250.543 134.583C250.335 134.583 250.159 134.511 250.015 134.367C249.871 134.223 249.799 134.047 249.799 133.839C249.799 133.631 249.871 133.455 250.015 133.311C250.159 133.167 250.335 133.095 250.543 133.095C250.743 133.095 250.911 133.167 251.047 133.311C251.191 133.455 251.263 133.631 251.263 133.839C251.263 134.047 251.191 134.223 251.047 134.367C250.911 134.511 250.743 134.583 250.543 134.583ZM251.071 135.651V142.227H249.979V135.651H251.071ZM254.425 136.875C254.649 136.483 254.977 136.163 255.409 135.915C255.841 135.667 256.333 135.543 256.885 135.543C257.477 135.543 258.009 135.683 258.481 135.963C258.953 136.243 259.325 136.639 259.597 137.151C259.869 137.655 260.005 138.243 260.005 138.915C260.005 139.579 259.869 140.171 259.597 140.691C259.325 141.211 258.949 141.615 258.469 141.903C257.997 142.191 257.469 142.335 256.885 142.335C256.317 142.335 255.817 142.211 255.385 141.963C254.961 141.715 254.641 141.399 254.425 141.015V142.227H253.333V133.347H254.425V136.875ZM258.889 138.915C258.889 138.419 258.789 137.987 258.589 137.619C258.389 137.251 258.117 136.971 257.773 136.779C257.437 136.587 257.065 136.491 256.657 136.491C256.257 136.491 255.885 136.591 255.541 136.791C255.205 136.983 254.933 137.267 254.725 137.643C254.525 138.011 254.425 138.439 254.425 138.927C254.425 139.423 254.525 139.859 254.725 140.235C254.933 140.603 255.205 140.887 255.541 141.087C255.885 141.279 256.257 141.375 256.657 141.375C257.065 141.375 257.437 141.279 257.773 141.087C258.117 140.887 258.389 140.603 258.589 140.235C258.789 139.859 258.889 139.419 258.889 138.915ZM267.842 138.687C267.842 138.895 267.83 139.115 267.806 139.347H262.55C262.59 139.995 262.81 140.503 263.21 140.871C263.618 141.231 264.11 141.411 264.686 141.411C265.158 141.411 265.55 141.303 265.862 141.087C266.182 140.863 266.406 140.567 266.534 140.199H267.71C267.534 140.831 267.182 141.347 266.654 141.747C266.126 142.139 265.47 142.335 264.686 142.335C264.062 142.335 263.502 142.195 263.006 141.915C262.518 141.635 262.134 141.239 261.854 140.727C261.574 140.207 261.434 139.607 261.434 138.927C261.434 138.247 261.57 137.651 261.842 137.139C262.114 136.627 262.494 136.235 262.982 135.963C263.478 135.683 264.046 135.543 264.686 135.543C265.31 135.543 265.862 135.679 266.342 135.951C266.822 136.223 267.19 136.599 267.446 137.079C267.71 137.551 267.842 138.087 267.842 138.687ZM266.714 138.459C266.714 138.043 266.622 137.687 266.438 137.391C266.254 137.087 266.002 136.859 265.682 136.707C265.37 136.547 265.022 136.467 264.638 136.467C264.086 136.467 263.614 136.643 263.222 136.995C262.838 137.347 262.618 137.835 262.562 138.459H266.714ZM269.275 138.915C269.275 138.243 269.411 137.655 269.683 137.151C269.955 136.639 270.327 136.243 270.799 135.963C271.279 135.683 271.815 135.543 272.407 135.543C272.919 135.543 273.395 135.663 273.835 135.903C274.275 136.135 274.611 136.443 274.843 136.827V133.347H275.947V142.227H274.843V140.991C274.627 141.383 274.307 141.707 273.883 141.963C273.459 142.211 272.963 142.335 272.395 142.335C271.811 142.335 271.279 142.191 270.799 141.903C270.327 141.615 269.955 141.211 269.683 140.691C269.411 140.171 269.275 139.579 269.275 138.915ZM274.843 138.927C274.843 138.431 274.743 137.999 274.543 137.631C274.343 137.263 274.071 136.983 273.727 136.791C273.391 136.591 273.019 136.491 272.611 136.491C272.203 136.491 271.831 136.587 271.495 136.779C271.159 136.971 270.891 137.251 270.691 137.619C270.491 137.987 270.391 138.419 270.391 138.915C270.391 139.419 270.491 139.859 270.691 140.235C270.891 140.603 271.159 140.887 271.495 141.087C271.831 141.279 272.203 141.375 272.611 141.375C273.019 141.375 273.391 141.279 273.727 141.087C274.071 140.887 274.343 140.603 274.543 140.235C274.743 139.859 274.843 139.423 274.843 138.927Z" fill="#232D42"/>
<circle cx="176.383" cy="137.82" r="4" fill="#FD4C5C"/>
<path d="M191.358 157.788C192.254 157.041 192.968 156.421 193.5 155.926C194.032 155.422 194.475 154.899 194.83 154.358C195.185 153.817 195.362 153.285 195.362 152.762C195.362 152.286 195.25 151.913 195.026 151.642C194.802 151.371 194.457 151.236 193.99 151.236C193.523 151.236 193.164 151.395 192.912 151.712C192.66 152.02 192.529 152.445 192.52 152.986H190.616C190.653 151.866 190.985 151.017 191.61 150.438C192.245 149.859 193.047 149.57 194.018 149.57C195.082 149.57 195.899 149.855 196.468 150.424C197.037 150.984 197.322 151.726 197.322 152.65C197.322 153.378 197.126 154.073 196.734 154.736C196.342 155.399 195.894 155.977 195.39 156.472C194.886 156.957 194.228 157.545 193.416 158.236H197.546V159.86H190.63V158.404L191.358 157.788ZM201.587 157.942L199.949 161.876H198.689L199.599 157.942H201.587ZM203.216 154.764C203.216 153.149 203.505 151.885 204.084 150.97C204.672 150.055 205.642 149.598 206.996 149.598C208.349 149.598 209.315 150.055 209.894 150.97C210.482 151.885 210.776 153.149 210.776 154.764C210.776 156.388 210.482 157.662 209.894 158.586C209.315 159.51 208.349 159.972 206.996 159.972C205.642 159.972 204.672 159.51 204.084 158.586C203.505 157.662 203.216 156.388 203.216 154.764ZM208.844 154.764C208.844 154.073 208.797 153.495 208.704 153.028C208.62 152.552 208.442 152.165 208.172 151.866C207.91 151.567 207.518 151.418 206.996 151.418C206.473 151.418 206.076 151.567 205.806 151.866C205.544 152.165 205.367 152.552 205.274 153.028C205.19 153.495 205.148 154.073 205.148 154.764C205.148 155.473 205.19 156.071 205.274 156.556C205.358 157.032 205.535 157.419 205.806 157.718C206.076 158.007 206.473 158.152 206.996 158.152C207.518 158.152 207.915 158.007 208.186 157.718C208.456 157.419 208.634 157.032 208.718 156.556C208.802 156.071 208.844 155.473 208.844 154.764ZM212.623 158.012V156.472L217.201 149.92H219.483V156.304H220.715V158.012H219.483V160H217.523V158.012H212.623ZM217.649 152.02L214.779 156.304H217.649V152.02ZM224.11 154.596C223.177 154.111 222.71 153.359 222.71 152.342C222.71 151.838 222.836 151.381 223.088 150.97C223.35 150.55 223.737 150.219 224.25 149.976C224.773 149.724 225.408 149.598 226.154 149.598C226.901 149.598 227.531 149.724 228.044 149.976C228.567 150.219 228.954 150.55 229.206 150.97C229.468 151.381 229.598 151.838 229.598 152.342C229.598 152.855 229.472 153.308 229.22 153.7C228.968 154.083 228.632 154.381 228.212 154.596C228.726 154.82 229.127 155.147 229.416 155.576C229.706 156.005 229.85 156.514 229.85 157.102C229.85 157.737 229.687 158.292 229.36 158.768C229.043 159.235 228.604 159.594 228.044 159.846C227.484 160.098 226.854 160.224 226.154 160.224C225.454 160.224 224.824 160.098 224.264 159.846C223.714 159.594 223.275 159.235 222.948 158.768C222.631 158.292 222.472 157.737 222.472 157.102C222.472 156.514 222.617 156.005 222.906 155.576C223.196 155.137 223.597 154.811 224.11 154.596ZM227.694 152.622C227.694 152.165 227.554 151.81 227.274 151.558C227.004 151.306 226.63 151.18 226.154 151.18C225.688 151.18 225.314 151.306 225.034 151.558C224.764 151.81 224.628 152.169 224.628 152.636C224.628 153.056 224.768 153.392 225.048 153.644C225.338 153.896 225.706 154.022 226.154 154.022C226.602 154.022 226.971 153.896 227.26 153.644C227.55 153.383 227.694 153.042 227.694 152.622ZM226.154 155.45C225.622 155.45 225.188 155.585 224.852 155.856C224.526 156.127 224.362 156.514 224.362 157.018C224.362 157.485 224.521 157.867 224.838 158.166C225.165 158.455 225.604 158.6 226.154 158.6C226.705 158.6 227.139 158.451 227.456 158.152C227.774 157.853 227.932 157.475 227.932 157.018C227.932 156.523 227.769 156.141 227.442 155.87C227.116 155.59 226.686 155.45 226.154 155.45Z" fill="#232D42"/>
<defs>
<filter id="filter0_d_36_2000" x="179.609" y="2.80347" width="97" height="44.458" filterUnits="userSpaceOnUse" color-interpolation-filters="sRGB">
<feFlood flood-opacity="0" result="BackgroundImageFix"/>
<feColorMatrix in="SourceAlpha" type="matrix" values="0 0 0 0 0 0 0 0 0 0 0 0 0 0 0 0 0 0 127 0" result="hardAlpha"/>
<feOffset dy="6"/>
<feGaussianBlur stdDeviation="5"/>
<feColorMatrix type="matrix" values="0 0 0 0 0.863571 0 0 0 0 0.82875 0 0 0 0 0.975 0 0 0 0.4 0"/>
<feBlend mode="normal" in2="BackgroundImageFix" result="effect1_dropShadow_36_2000"/>
<feBlend mode="normal" in="SourceGraphic" in2="effect1_dropShadow_36_2000" result="shape"/>
</filter>
</defs>
</svg>
