<svg width="40" height="40" viewBox="0 0 40 40" fill="none" xmlns="http://www.w3.org/2000/svg">
<path d="M24.5451 10H34.5451L24.5451 0V10ZM24.5451 11.2117H23.3334V0H8.18341C6.67508 0 5.45508 1.22 5.45508 2.72667V37.2733C5.45508 38.78 6.67508 40 8.18174 40H31.8184C33.3251 40 34.5451 38.78 34.5451 37.2733V11.2117H24.5451ZM13.1834 28.8633C13.0042 28.8632 12.8267 28.8278 12.6611 28.7591C12.4955 28.6904 12.3451 28.5898 12.2185 28.4629C12.0918 28.3361 11.9913 28.1856 11.9228 28.0199C11.8543 27.8543 11.8191 27.6768 11.8192 27.4975C11.8194 27.3182 11.8548 27.1408 11.9235 26.9752C11.9922 26.8096 12.0928 26.6592 12.2196 26.5325C12.3465 26.4059 12.497 26.3054 12.6627 26.2369C12.8283 26.1684 13.0058 26.1332 13.1851 26.1333C13.5471 26.1333 13.8943 26.2771 14.1503 26.5331C14.4063 26.7891 14.5501 27.1363 14.5501 27.4983C14.5501 27.8604 14.4063 28.2075 14.1503 28.4635C13.8943 28.7195 13.5454 28.8633 13.1834 28.8633ZM13.1834 23.4083C13.0003 23.4146 12.8177 23.384 12.6466 23.3182C12.4756 23.2524 12.3195 23.1529 12.1878 23.0255C12.056 22.8981 11.9513 22.7455 11.8798 22.5767C11.8082 22.408 11.7715 22.2266 11.7716 22.0433C11.7717 21.86 11.8087 21.6787 11.8804 21.51C11.9521 21.3414 12.0571 21.1889 12.189 21.0616C12.3209 20.9344 12.4771 20.8351 12.6482 20.7695C12.8193 20.7039 13.0019 20.6735 13.1851 20.68C13.5386 20.6924 13.8736 20.8415 14.1193 21.096C14.365 21.3505 14.5024 21.6904 14.5024 22.0442C14.5024 22.3979 14.365 22.7379 14.1193 22.9924C13.8736 23.2468 13.537 23.396 13.1834 23.4083ZM13.1834 17.955C13.0042 17.9549 12.8267 17.9195 12.6611 17.8508C12.4955 17.7821 12.3451 17.6814 12.2185 17.5546C12.0918 17.4278 11.9913 17.2772 11.9228 17.1116C11.8543 16.9459 11.8191 16.7684 11.8192 16.5892C11.8194 16.4099 11.8548 16.2324 11.9235 16.0669C11.9922 15.9013 12.0928 15.7509 12.2196 15.6242C12.3465 15.4975 12.497 15.3971 12.6627 15.3286C12.8283 15.2601 13.0058 15.2249 13.1851 15.225C13.5471 15.225 13.8943 15.3688 14.1503 15.6248C14.4063 15.8808 14.5501 16.228 14.5501 16.59C14.5501 16.952 14.4063 17.2992 14.1503 17.5552C13.8943 17.8112 13.5454 17.955 13.1834 17.955ZM28.1834 28.6367H16.8201V26.3633H28.1834V28.6367ZM28.1834 23.1817H16.8201V20.9083H28.1834V23.1817ZM28.1834 17.7267H16.8201V15.455H28.1834V17.7267Z" fill="black"/>
</svg>
