<svg width="40" height="40" viewBox="0 0 40 40" fill="none" xmlns="http://www.w3.org/2000/svg">
<g clip-path="url(#clip0_79_35)">
<path fill-rule="evenodd" clip-rule="evenodd" d="M29.1804 7.25138C26.6333 5.41818 23.5957 4.38971 20.4589 4.29852C17.322 4.20732 14.2298 5.05757 11.5806 6.7397C8.93132 8.42183 6.84652 10.8588 5.5948 13.7365C4.34308 16.6142 3.9818 19.8008 4.55751 22.8857C4.65236 23.4399 4.52557 24.0092 4.20448 24.4708C3.88339 24.9324 3.39374 25.2493 2.84113 25.3531C2.28852 25.457 1.71723 25.3395 1.25047 25.0259C0.783721 24.7124 0.458906 24.2279 0.346084 23.6771C-0.398471 19.6924 0.0855477 15.5755 1.73398 11.8722C3.38241 8.16885 6.11741 5.05393 9.57643 2.94034C13.0355 0.826757 17.0551 -0.185686 21.1027 0.0372241C25.1502 0.260134 29.0344 1.70787 32.2404 4.18852L33.9889 2.43995C34.1886 2.23982 34.4431 2.10341 34.7203 2.04798C34.9975 1.99256 35.2849 2.02061 35.5461 2.12859C35.8073 2.23657 36.0307 2.41963 36.1878 2.65459C36.345 2.88955 36.4289 3.16585 36.4289 3.44852V9.99995C36.4289 10.3788 36.2784 10.7422 36.0105 11.0101C35.7426 11.278 35.3792 11.4285 35.0004 11.4285H28.4489C28.1669 11.4279 27.8913 11.3438 27.6569 11.1868C27.4226 11.0297 27.24 10.8069 27.1321 10.5462C27.0242 10.2856 26.9959 9.99882 27.0508 9.72212C27.1057 9.44542 27.2412 9.19115 27.4404 8.99138L29.1804 7.25138ZM37.1547 14.6142C37.7131 14.5089 38.2906 14.6298 38.7599 14.9502C39.2293 15.2706 39.5522 15.7643 39.6575 16.3228C40.4027 20.308 39.919 24.4255 38.2705 28.1295C36.622 31.8334 33.8866 34.9488 30.427 37.0626C26.9674 39.1763 22.947 40.1886 18.8989 39.9651C14.8508 39.7417 10.9663 38.2931 7.76037 35.8114L6.0118 37.5628C5.812 37.7631 5.55722 37.8996 5.27977 37.9549C5.00232 38.0103 4.71468 37.982 4.45333 37.8736C4.19198 37.7653 3.96868 37.5818 3.81174 37.3464C3.6548 37.111 3.57129 36.8343 3.5718 36.5514V30C3.5718 29.6211 3.72231 29.2577 3.99022 28.9898C4.25813 28.7219 4.62149 28.5714 5.00037 28.5714H11.5518C11.8347 28.5709 12.1114 28.6544 12.3468 28.8113C12.5822 28.9683 12.7657 29.1916 12.874 29.4529C12.9824 29.7143 13.0107 30.0019 12.9553 30.2794C12.9 30.5568 12.7635 30.8116 12.5632 31.0114L10.8204 32.7514C13.3674 34.5846 16.405 35.613 19.5419 35.7042C22.6787 35.7954 25.771 34.9452 28.4202 33.2631C31.0694 31.5809 33.1542 29.144 34.4059 26.2663C35.6577 23.3886 36.0189 20.202 35.4432 17.1171C35.3911 16.8402 35.3942 16.5557 35.4522 16.2799C35.5102 16.0042 35.622 15.7426 35.7812 15.5101C35.9405 15.2776 36.144 15.0788 36.3802 14.9251C36.6163 14.7714 36.8805 14.6657 37.1575 14.6142H37.1547ZM21.7918 10.4485C21.7918 9.8802 21.566 9.33515 21.1642 8.93329C20.7623 8.53143 20.2173 8.30566 19.6489 8.30566C19.0806 8.30566 18.5356 8.53143 18.1337 8.93329C17.7318 9.33515 17.5061 9.8802 17.5061 10.4485V11.4285C16.3891 11.6133 15.3714 12.1817 14.6281 13.0358C13.8849 13.8899 13.4625 14.9763 13.4338 16.1082C13.405 17.24 13.7717 18.3465 14.4706 19.2372C15.1695 20.1279 16.157 20.7472 17.2632 20.9885L20.8632 21.7742C21.0767 21.8284 21.2635 21.9578 21.3892 22.1386C21.5149 22.3195 21.5711 22.5396 21.5475 22.7586C21.5238 22.9775 21.4219 23.1806 21.2605 23.3305C21.0991 23.4803 20.8891 23.5669 20.6689 23.5742H18.6289C18.4412 23.5735 18.2582 23.515 18.1048 23.4066C17.9514 23.2983 17.8352 23.1453 17.7718 22.9685C17.678 22.7031 17.5328 22.4587 17.3446 22.2493C17.1563 22.04 16.9287 21.8697 16.6747 21.7484C16.4206 21.627 16.1452 21.5568 15.864 21.5419C15.5829 21.527 15.3015 21.5676 15.0361 21.6614C14.7706 21.7552 14.5262 21.9003 14.3169 22.0886C14.1075 22.2768 13.9373 22.5045 13.8159 22.7585C13.6945 23.0126 13.6244 23.288 13.6095 23.5692C13.5945 23.8503 13.6351 24.1316 13.7289 24.3971C14.0234 25.2284 14.5242 25.9712 15.1844 26.5559C15.8446 27.1407 16.6425 27.5481 17.5032 27.74V28.7742C17.5032 29.3426 17.729 29.8876 18.1309 30.2895C18.5327 30.6913 19.0778 30.9171 19.6461 30.9171C20.2144 30.9171 20.7595 30.6913 21.1613 30.2895C21.5632 29.8876 21.7889 29.3426 21.7889 28.7742V27.74C22.9431 27.4813 23.9746 26.8369 24.7132 25.9131C25.4518 24.9893 25.8534 23.8413 25.8517 22.6585C25.8501 21.4757 25.4452 20.3289 24.704 19.4072C23.9628 18.4854 22.9295 17.8439 21.7747 17.5885L18.1747 16.7999C18.035 16.7684 17.9118 16.6866 17.8286 16.5701C17.7453 16.4536 17.7079 16.3105 17.7235 16.1681C17.739 16.0258 17.8064 15.8941 17.9128 15.7983C18.0192 15.7024 18.1572 15.6491 18.3004 15.6485H20.6661C20.8543 15.6476 21.038 15.7054 21.1917 15.814C21.3454 15.9226 21.4613 16.0765 21.5232 16.2542C21.7127 16.7904 22.1073 17.2293 22.6204 17.4744C22.8744 17.5958 23.1499 17.6659 23.431 17.6809C23.7122 17.6958 23.9935 17.6552 24.2589 17.5614C24.5244 17.4676 24.7688 17.3224 24.9781 17.1342C25.1875 16.9459 25.3577 16.7183 25.4791 16.4642C25.6005 16.2102 25.6706 15.9347 25.6856 15.6536C25.7005 15.3725 25.6599 15.0911 25.5661 14.8257C25.2723 13.9935 24.7714 13.2499 24.1105 12.665C23.4496 12.0801 22.6507 11.6733 21.7889 11.4828V10.4542L21.7918 10.4485Z" fill="black"/>
</g>
<defs>
<clipPath id="clip0_79_35">
<rect width="40" height="40" fill="white"/>
</clipPath>
</defs>
</svg>
