<svg width="40" height="40" viewBox="0 0 40 40" fill="none" xmlns="http://www.w3.org/2000/svg">
<path d="M19.1663 33.3333H5.83301C4.4523 33.3333 3.33301 32.214 3.33301 30.8333V9.16663C3.33301 7.78592 4.4523 6.66663 5.83301 6.66663H34.1663C35.5471 6.66663 36.6663 7.78592 36.6663 9.16663V21.5686" stroke="black" stroke-width="4" stroke-linecap="round" stroke-linejoin="round"/>
<path d="M3.33301 9.16663C3.33301 7.78592 4.4523 6.66663 5.83301 6.66663H34.1663C35.5471 6.66663 36.6663 7.78592 36.6663 9.16663V16.6666H3.33301V9.16663Z" fill="white" stroke="black" stroke-width="4"/>
<path d="M28.3333 27.5L25 30.8333L28.3333 34.1667" stroke="black" stroke-width="4" stroke-linecap="round" stroke-linejoin="round"/>
<path d="M33.333 27.5L36.6663 30.8333L33.333 34.1667" stroke="black" stroke-width="4" stroke-linecap="round" stroke-linejoin="round"/>
<path d="M6.66667 11.6666C6.66667 10.7461 7.41286 9.99992 8.33333 9.99992C9.25381 9.99992 10 10.7461 10 11.6666C10 12.5871 9.25381 13.3333 8.33333 13.3333C7.41286 13.3333 6.66667 12.5871 6.66667 11.6666Z" fill="#61A978"/>
<path d="M11.6667 11.6666C11.6667 10.7461 12.4129 9.99992 13.3333 9.99992C14.2538 9.99992 15 10.7461 15 11.6666C15 12.5871 14.2538 13.3333 13.3333 13.3333C12.4129 13.3333 11.6667 12.5871 11.6667 11.6666Z" fill="#61A978"/>
</svg>
